<mxfile host="65bd71144e">
    <diagram id="tlkpixnzXzbXqinJbgAL" name="第 1 页">
        <mxGraphModel dx="731" dy="536" grid="1" gridSize="10" guides="1" tooltips="1" connect="1" arrows="0" fold="1" page="1" pageScale="1" pageWidth="850" pageHeight="1100" math="0" shadow="0">
            <root>
                <mxCell id="0"/>
                <mxCell id="1" parent="0"/>
                <mxCell id="148" value="GPU Memory OPT" style="rounded=0;whiteSpace=wrap;html=1;labelBackgroundColor=none;strokeColor=#666666;fontFamily=Helvetica;fontSize=14;fillColor=#f5f5f5;gradientColor=#b3b3b3;" vertex="1" parent="1">
                    <mxGeometry x="90" y="690" width="720" height="20" as="geometry"/>
                </mxCell>
                <mxCell id="149" value="" style="rounded=0;whiteSpace=wrap;html=1;labelBackgroundColor=none;strokeColor=#666666;fontFamily=Helvetica;fontSize=14;fillColor=#f5f5f5;gradientColor=#b3b3b3;" vertex="1" parent="1">
                    <mxGeometry x="160" y="710" width="650" height="50" as="geometry"/>
                </mxCell>
                <mxCell id="150" value="" style="rounded=0;whiteSpace=wrap;html=1;labelBackgroundColor=none;strokeColor=#666666;fontFamily=Helvetica;fontSize=14;fillColor=#f5f5f5;gradientColor=#b3b3b3;" vertex="1" parent="1">
                    <mxGeometry x="160" y="760" width="650" height="50" as="geometry"/>
                </mxCell>
                <mxCell id="151" value="" style="rounded=0;whiteSpace=wrap;html=1;labelBackgroundColor=none;strokeColor=#666666;fontFamily=Helvetica;fontSize=14;fillColor=#f5f5f5;gradientColor=#b3b3b3;" vertex="1" parent="1">
                    <mxGeometry x="160" y="810" width="650" height="50" as="geometry"/>
                </mxCell>
                <mxCell id="152" value="" style="rounded=0;whiteSpace=wrap;html=1;labelBackgroundColor=none;strokeColor=#666666;fontFamily=Helvetica;fontSize=14;fillColor=#f5f5f5;gradientColor=#b3b3b3;" vertex="1" parent="1">
                    <mxGeometry x="160" y="860" width="650" height="50" as="geometry"/>
                </mxCell>
                <mxCell id="153" value="Init" style="rounded=0;whiteSpace=wrap;html=1;labelBackgroundColor=none;strokeColor=#666666;fontFamily=Helvetica;fontSize=14;fillColor=#f5f5f5;gradientColor=#b3b3b3;" vertex="1" parent="1">
                    <mxGeometry x="90" y="710" width="70" height="50" as="geometry"/>
                </mxCell>
                <mxCell id="154" value="GPU-&amp;gt;S1" style="rounded=0;whiteSpace=wrap;html=1;labelBackgroundColor=none;strokeColor=#666666;fontFamily=Helvetica;fontSize=14;fillColor=#f5f5f5;gradientColor=#b3b3b3;" vertex="1" parent="1">
                    <mxGeometry x="90" y="760" width="70" height="50" as="geometry"/>
                </mxCell>
                <mxCell id="155" value="S1-&amp;gt;Pool" style="rounded=0;whiteSpace=wrap;html=1;labelBackgroundColor=none;strokeColor=#666666;fontFamily=Helvetica;fontSize=14;fillColor=#f5f5f5;gradientColor=#b3b3b3;" vertex="1" parent="1">
                    <mxGeometry x="90" y="810" width="70" height="50" as="geometry"/>
                </mxCell>
                <mxCell id="156" value="Pool-&amp;gt;S2" style="rounded=0;whiteSpace=wrap;html=1;labelBackgroundColor=none;strokeColor=#666666;fontFamily=Helvetica;fontSize=14;fillColor=#f5f5f5;gradientColor=#b3b3b3;" vertex="1" parent="1">
                    <mxGeometry x="90" y="860" width="70" height="50" as="geometry"/>
                </mxCell>
                <mxCell id="116" value="" style="group;fontFamily=Helvetica;fontStyle=1;align=center;" vertex="1" connectable="0" parent="1">
                    <mxGeometry x="160" y="760" width="620" height="100" as="geometry"/>
                </mxCell>
                <mxCell id="44" value="" style="rounded=0;whiteSpace=wrap;html=1;strokeColor=#2D7600;fillColor=#60a917;fontColor=#ffffff;fontFamily=Helvetica;fontStyle=1;align=center;" vertex="1" parent="116">
                    <mxGeometry y="25" width="12.916666666666666" height="25" as="geometry"/>
                </mxCell>
                <mxCell id="45" value="" style="rounded=0;whiteSpace=wrap;html=1;strokeColor=#005700;fillColor=#008a00;fontColor=#ffffff;fontFamily=Helvetica;fontStyle=1;align=center;" vertex="1" parent="116">
                    <mxGeometry x="155" y="25" width="12.916666666666666" height="25" as="geometry"/>
                </mxCell>
                <mxCell id="46" value="" style="rounded=0;whiteSpace=wrap;html=1;strokeColor=#006EAF;fillColor=#1ba1e2;fontColor=#ffffff;fontFamily=Helvetica;fontStyle=1;align=center;" vertex="1" parent="116">
                    <mxGeometry x="322.91666666666663" y="25" width="90.41666666666666" height="25" as="geometry"/>
                </mxCell>
                <mxCell id="47" value="" style="rounded=0;whiteSpace=wrap;html=1;strokeColor=default;fillColor=default;fontFamily=Helvetica;fontStyle=1;align=center;" vertex="1" parent="116">
                    <mxGeometry x="516.6666666666666" y="25" width="90.41666666666666" height="25" as="geometry"/>
                </mxCell>
                <mxCell id="48" value="" style="rounded=0;whiteSpace=wrap;html=1;strokeColor=#006EAF;fillColor=#1ba1e2;fontColor=#ffffff;fontFamily=Helvetica;fontStyle=1;align=center;" vertex="1" parent="116">
                    <mxGeometry x="12.916666666666666" y="25" width="90.41666666666666" height="25" as="geometry"/>
                </mxCell>
                <mxCell id="49" value="" style="rounded=0;whiteSpace=wrap;html=1;strokeColor=default;fillColor=default;fontFamily=Helvetica;fontStyle=1;align=center;" vertex="1" parent="116">
                    <mxGeometry x="167.91666666666666" y="25" width="90.41666666666666" height="25" as="geometry"/>
                </mxCell>
                <mxCell id="50" value="" style="rounded=0;whiteSpace=wrap;html=1;strokeColor=#2D7600;fillColor=#60a917;fontColor=#ffffff;fontFamily=Helvetica;fontStyle=1;align=center;" vertex="1" parent="116">
                    <mxGeometry x="310" y="25" width="12.916666666666666" height="25" as="geometry"/>
                </mxCell>
                <mxCell id="51" value="" style="rounded=0;whiteSpace=wrap;html=1;strokeColor=#005700;fillColor=#008a00;fontColor=#ffffff;fontFamily=Helvetica;fontStyle=1;align=center;" vertex="1" parent="116">
                    <mxGeometry x="413.3333333333333" y="25" width="12.916666666666666" height="25" as="geometry"/>
                </mxCell>
                <mxCell id="52" value="GPU" style="text;html=1;align=center;verticalAlign=middle;resizable=0;points=[];autosize=1;strokeColor=none;fillColor=none;fontFamily=Helvetica;fontStyle=1" vertex="1" parent="116">
                    <mxGeometry x="310" width="50" height="30" as="geometry"/>
                </mxCell>
                <mxCell id="53" value="Sharepool" style="text;html=1;align=center;verticalAlign=middle;resizable=0;points=[];autosize=1;strokeColor=none;fillColor=none;fontFamily=Helvetica;fontStyle=1" vertex="1" parent="116">
                    <mxGeometry x="510.2083333333333" width="80" height="30" as="geometry"/>
                </mxCell>
                <mxCell id="54" value="Stream1" style="text;html=1;align=center;verticalAlign=middle;resizable=0;points=[];autosize=1;strokeColor=none;fillColor=none;fontFamily=Helvetica;fontStyle=1" vertex="1" parent="116">
                    <mxGeometry width="70" height="30" as="geometry"/>
                </mxCell>
                <mxCell id="55" value="Stream2" style="text;html=1;align=center;verticalAlign=middle;resizable=0;points=[];autosize=1;strokeColor=none;fillColor=none;fontFamily=Helvetica;fontStyle=1" vertex="1" parent="116">
                    <mxGeometry x="155" width="70" height="30" as="geometry"/>
                </mxCell>
                <mxCell id="56" value="" style="rounded=0;whiteSpace=wrap;html=1;strokeColor=default;fillColor=default;fontFamily=Helvetica;fontStyle=1;align=center;" vertex="1" parent="116">
                    <mxGeometry x="426.25" y="25" width="64.58333333333333" height="25" as="geometry"/>
                </mxCell>
                <mxCell id="114" value="" style="group;fontFamily=Helvetica;fontStyle=1;align=center;" vertex="1" connectable="0" parent="116">
                    <mxGeometry y="50" width="620" height="50" as="geometry"/>
                </mxCell>
                <mxCell id="57" value="" style="rounded=0;whiteSpace=wrap;html=1;strokeColor=#2D7600;fillColor=#60a917;fontColor=#ffffff;container=0;fontFamily=Helvetica;fontStyle=1;align=center;" vertex="1" parent="114">
                    <mxGeometry y="25" width="12.916666666666666" height="25" as="geometry"/>
                </mxCell>
                <mxCell id="58" value="" style="rounded=0;whiteSpace=wrap;html=1;strokeColor=#005700;fillColor=#008a00;fontColor=#ffffff;container=0;fontFamily=Helvetica;fontStyle=1;align=center;" vertex="1" parent="114">
                    <mxGeometry x="155" y="25" width="12.916666666666666" height="25" as="geometry"/>
                </mxCell>
                <mxCell id="59" value="" style="rounded=0;whiteSpace=wrap;html=1;strokeColor=#006EAF;fillColor=default;fontColor=#ffffff;container=0;fontFamily=Helvetica;fontStyle=1;align=center;" vertex="1" parent="114">
                    <mxGeometry x="322.91666666666663" y="25" width="90.41666666666666" height="25" as="geometry"/>
                </mxCell>
                <mxCell id="60" value="" style="rounded=0;whiteSpace=wrap;html=1;strokeColor=#006EAF;fillColor=#1ba1e2;fontColor=#ffffff;container=0;fontFamily=Helvetica;fontStyle=1;align=center;" vertex="1" parent="114">
                    <mxGeometry x="516.6666666666666" y="25" width="90.41666666666666" height="25" as="geometry"/>
                </mxCell>
                <mxCell id="61" value="" style="rounded=0;whiteSpace=wrap;html=1;strokeColor=#006EAF;fillColor=default;fontColor=#ffffff;container=0;fontFamily=Helvetica;fontStyle=1;align=center;" vertex="1" parent="114">
                    <mxGeometry x="12.916666666666666" y="25" width="90.41666666666666" height="25" as="geometry"/>
                </mxCell>
                <mxCell id="62" value="" style="rounded=0;whiteSpace=wrap;html=1;strokeColor=default;fillColor=default;container=0;fontFamily=Helvetica;fontStyle=1;align=center;" vertex="1" parent="114">
                    <mxGeometry x="167.91666666666663" y="25" width="90.41666666666666" height="25" as="geometry"/>
                </mxCell>
                <mxCell id="63" value="" style="rounded=0;whiteSpace=wrap;html=1;strokeColor=#2D7600;fillColor=#60a917;fontColor=#ffffff;container=0;fontFamily=Helvetica;fontStyle=1;align=center;" vertex="1" parent="114">
                    <mxGeometry x="310" y="25" width="12.916666666666666" height="25" as="geometry"/>
                </mxCell>
                <mxCell id="64" value="" style="rounded=0;whiteSpace=wrap;html=1;strokeColor=#005700;fillColor=#008a00;fontColor=#ffffff;container=0;fontFamily=Helvetica;fontStyle=1;align=center;" vertex="1" parent="114">
                    <mxGeometry x="413.3333333333333" y="25" width="12.916666666666666" height="25" as="geometry"/>
                </mxCell>
                <mxCell id="65" value="GPU" style="text;html=1;align=center;verticalAlign=middle;resizable=0;points=[];autosize=1;strokeColor=none;fillColor=none;container=0;fontFamily=Helvetica;fontStyle=1" vertex="1" parent="114">
                    <mxGeometry x="310" width="50" height="30" as="geometry"/>
                </mxCell>
                <mxCell id="66" value="Sharepool" style="text;html=1;align=center;verticalAlign=middle;resizable=0;points=[];autosize=1;strokeColor=none;fillColor=none;container=0;fontFamily=Helvetica;fontStyle=1" vertex="1" parent="114">
                    <mxGeometry x="510.2083333333333" width="80" height="30" as="geometry"/>
                </mxCell>
                <mxCell id="67" value="Stream1" style="text;html=1;align=center;verticalAlign=middle;resizable=0;points=[];autosize=1;strokeColor=none;fillColor=none;container=0;fontFamily=Helvetica;fontStyle=1" vertex="1" parent="114">
                    <mxGeometry width="70" height="30" as="geometry"/>
                </mxCell>
                <mxCell id="68" value="Stream2" style="text;html=1;align=center;verticalAlign=middle;resizable=0;points=[];autosize=1;strokeColor=none;fillColor=none;container=0;fontFamily=Helvetica;fontStyle=1" vertex="1" parent="114">
                    <mxGeometry x="155" width="70" height="30" as="geometry"/>
                </mxCell>
                <mxCell id="69" value="" style="rounded=0;whiteSpace=wrap;html=1;strokeColor=default;fillColor=default;container=0;fontFamily=Helvetica;fontStyle=1;align=center;" vertex="1" parent="114">
                    <mxGeometry x="426.25" y="25" width="64.58333333333333" height="25" as="geometry"/>
                </mxCell>
                <mxCell id="157" value="" style="group" vertex="1" connectable="0" parent="1">
                    <mxGeometry x="160" y="710" width="607.0833333333334" height="50" as="geometry"/>
                </mxCell>
                <mxCell id="130" value="" style="rounded=0;whiteSpace=wrap;html=1;strokeColor=#2D7600;fillColor=#60a917;fontColor=#ffffff;fontFamily=Helvetica;fontStyle=1;align=center;" vertex="1" parent="157">
                    <mxGeometry y="25" width="12.916666666666668" height="25" as="geometry"/>
                </mxCell>
                <mxCell id="131" value="" style="rounded=0;whiteSpace=wrap;html=1;strokeColor=#005700;fillColor=#008a00;fontColor=#ffffff;fontFamily=Helvetica;fontStyle=1;align=center;" vertex="1" parent="157">
                    <mxGeometry x="155" y="25" width="12.916666666666668" height="25" as="geometry"/>
                </mxCell>
                <mxCell id="132" value="" style="rounded=0;whiteSpace=wrap;html=1;strokeColor=default;fillColor=default;fontFamily=Helvetica;fontStyle=1;align=center;" vertex="1" parent="157">
                    <mxGeometry x="322.9166666666667" y="25" width="90.41666666666667" height="25" as="geometry"/>
                </mxCell>
                <mxCell id="133" value="" style="rounded=0;whiteSpace=wrap;html=1;strokeColor=default;fillColor=default;fontFamily=Helvetica;fontStyle=1;align=center;" vertex="1" parent="157">
                    <mxGeometry x="516.6666666666667" y="25" width="90.41666666666667" height="25" as="geometry"/>
                </mxCell>
                <mxCell id="134" value="GPU" style="text;html=1;align=center;verticalAlign=middle;resizable=0;points=[];autosize=1;strokeColor=none;fillColor=none;fontFamily=Helvetica;fontStyle=1" vertex="1" parent="157">
                    <mxGeometry x="310" width="50" height="30" as="geometry"/>
                </mxCell>
                <mxCell id="135" value="Sharepool" style="text;html=1;align=center;verticalAlign=middle;resizable=0;points=[];autosize=1;strokeColor=none;fillColor=none;fontFamily=Helvetica;fontStyle=1" vertex="1" parent="157">
                    <mxGeometry x="510.20833333333337" width="80" height="30" as="geometry"/>
                </mxCell>
                <mxCell id="136" value="Stream1" style="text;html=1;align=center;verticalAlign=middle;resizable=0;points=[];autosize=1;strokeColor=none;fillColor=none;fontFamily=Helvetica;fontStyle=1" vertex="1" parent="157">
                    <mxGeometry width="70" height="30" as="geometry"/>
                </mxCell>
                <mxCell id="137" value="Stream2" style="text;html=1;align=center;verticalAlign=middle;resizable=0;points=[];autosize=1;strokeColor=none;fillColor=none;fontFamily=Helvetica;fontStyle=1" vertex="1" parent="157">
                    <mxGeometry x="155" width="70" height="30" as="geometry"/>
                </mxCell>
                <mxCell id="138" value="" style="rounded=0;whiteSpace=wrap;html=1;strokeColor=default;fillColor=default;fontFamily=Helvetica;fontStyle=1;align=center;" vertex="1" parent="157">
                    <mxGeometry x="12.916666666666657" y="25" width="90.41666666666667" height="25" as="geometry"/>
                </mxCell>
                <mxCell id="139" value="" style="rounded=0;whiteSpace=wrap;html=1;strokeColor=default;fillColor=default;fontFamily=Helvetica;fontStyle=1;align=center;" vertex="1" parent="157">
                    <mxGeometry x="167.91666666666669" y="25" width="90.41666666666667" height="25" as="geometry"/>
                </mxCell>
                <mxCell id="140" value="" style="rounded=0;whiteSpace=wrap;html=1;strokeColor=#2D7600;fillColor=#60a917;fontColor=#ffffff;fontFamily=Helvetica;fontStyle=1;align=center;" vertex="1" parent="157">
                    <mxGeometry x="310" y="25" width="12.916666666666668" height="25" as="geometry"/>
                </mxCell>
                <mxCell id="141" value="" style="rounded=0;whiteSpace=wrap;html=1;strokeColor=#005700;fillColor=#008a00;fontColor=#ffffff;fontFamily=Helvetica;fontStyle=1;align=center;" vertex="1" parent="157">
                    <mxGeometry x="413.33333333333337" y="25" width="12.916666666666668" height="25" as="geometry"/>
                </mxCell>
                <mxCell id="142" value="" style="rounded=0;whiteSpace=wrap;html=1;strokeColor=default;fillColor=default;fontFamily=Helvetica;fontStyle=1;align=center;" vertex="1" parent="157">
                    <mxGeometry x="426.25" y="25" width="64.58333333333334" height="25" as="geometry"/>
                </mxCell>
                <mxCell id="162" value="" style="group" vertex="1" connectable="0" parent="1">
                    <mxGeometry x="160" y="860" width="607.0833333333333" height="50" as="geometry"/>
                </mxCell>
                <mxCell id="78" value="GPU" style="text;html=1;align=center;verticalAlign=middle;resizable=0;points=[];autosize=1;strokeColor=none;fillColor=none;fontFamily=Helvetica;fontStyle=1" vertex="1" parent="162">
                    <mxGeometry x="310" width="50" height="30" as="geometry"/>
                </mxCell>
                <mxCell id="79" value="Sharepool" style="text;html=1;align=center;verticalAlign=middle;resizable=0;points=[];autosize=1;strokeColor=none;fillColor=none;fontFamily=Helvetica;fontStyle=1" vertex="1" parent="162">
                    <mxGeometry x="510.20833333333326" width="80" height="30" as="geometry"/>
                </mxCell>
                <mxCell id="80" value="Stream1" style="text;html=1;align=center;verticalAlign=middle;resizable=0;points=[];autosize=1;strokeColor=none;fillColor=none;fontFamily=Helvetica;fontStyle=1" vertex="1" parent="162">
                    <mxGeometry width="70" height="30" as="geometry"/>
                </mxCell>
                <mxCell id="81" value="Stream2" style="text;html=1;align=center;verticalAlign=middle;resizable=0;points=[];autosize=1;strokeColor=none;fillColor=none;fontFamily=Helvetica;fontStyle=1" vertex="1" parent="162">
                    <mxGeometry x="155" width="70" height="30" as="geometry"/>
                </mxCell>
                <mxCell id="70" value="" style="rounded=0;whiteSpace=wrap;html=1;strokeColor=#2D7600;fillColor=#60a917;fontColor=#ffffff;fontFamily=Helvetica;fontStyle=1;align=center;container=0;" vertex="1" parent="162">
                    <mxGeometry y="25" width="12.916666666666666" height="25" as="geometry"/>
                </mxCell>
                <mxCell id="71" value="" style="rounded=0;whiteSpace=wrap;html=1;strokeColor=#005700;fillColor=#008a00;fontColor=#ffffff;fontFamily=Helvetica;fontStyle=1;align=center;container=0;" vertex="1" parent="162">
                    <mxGeometry x="155" y="25" width="12.916666666666666" height="25" as="geometry"/>
                </mxCell>
                <mxCell id="72" value="" style="rounded=0;whiteSpace=wrap;html=1;strokeColor=#006EAF;fillColor=#1ba1e2;fontColor=#ffffff;fontFamily=Helvetica;fontStyle=1;align=center;container=0;" vertex="1" parent="162">
                    <mxGeometry x="322.91666666666663" y="25" width="90.41666666666666" height="25" as="geometry"/>
                </mxCell>
                <mxCell id="73" value="" style="rounded=0;whiteSpace=wrap;html=1;strokeColor=#006EAF;fillColor=default;fontColor=#ffffff;fontFamily=Helvetica;fontStyle=1;align=center;container=0;" vertex="1" parent="162">
                    <mxGeometry x="516.6666666666666" y="25" width="90.41666666666666" height="25" as="geometry"/>
                </mxCell>
                <mxCell id="74" value="" style="rounded=0;whiteSpace=wrap;html=1;strokeColor=#006EAF;fillColor=default;fontColor=#ffffff;fontFamily=Helvetica;fontStyle=1;align=center;container=0;" vertex="1" parent="162">
                    <mxGeometry x="12.919999999999987" y="20" width="90.42" height="30" as="geometry"/>
                </mxCell>
                <mxCell id="75" value="" style="rounded=0;whiteSpace=wrap;html=1;strokeColor=#006EAF;fillColor=#1ba1e2;fontColor=#ffffff;fontFamily=Helvetica;fontStyle=1;align=center;container=0;" vertex="1" parent="162">
                    <mxGeometry x="167.91666666666663" y="25" width="90.41666666666666" height="25" as="geometry"/>
                </mxCell>
                <mxCell id="76" value="" style="rounded=0;whiteSpace=wrap;html=1;strokeColor=#2D7600;fillColor=#60a917;fontColor=#ffffff;fontFamily=Helvetica;fontStyle=1;align=center;container=0;" vertex="1" parent="162">
                    <mxGeometry x="310" y="25" width="12.916666666666666" height="25" as="geometry"/>
                </mxCell>
                <mxCell id="77" value="" style="rounded=0;whiteSpace=wrap;html=1;strokeColor=#005700;fillColor=#008a00;fontColor=#ffffff;fontFamily=Helvetica;fontStyle=1;align=center;container=0;" vertex="1" parent="162">
                    <mxGeometry x="413.33333333333326" y="25" width="12.916666666666666" height="25" as="geometry"/>
                </mxCell>
                <mxCell id="82" value="" style="rounded=0;whiteSpace=wrap;html=1;strokeColor=default;fillColor=default;fontFamily=Helvetica;fontStyle=1;align=center;container=0;" vertex="1" parent="162">
                    <mxGeometry x="426.25" y="25" width="64.58333333333333" height="25" as="geometry"/>
                </mxCell>
            </root>
        </mxGraphModel>
    </diagram>
</mxfile>